<?xml version="1.0" encoding="UTF-8"?>
<svg width="43px" height="29px" viewBox="0 0 43 29" version="1.1" xmlns="http://www.w3.org/2000/svg" xmlns:xlink="http://www.w3.org/1999/xlink">
    <!-- Generator: Sketch 51 (57462) - http://www.bohemiancoding.com/sketch -->
    <title>Stroke 1</title>
    <desc>Created with Sketch.</desc>
    <defs></defs>
    <g id="Page-1" stroke="none" stroke-width="1" fill="none" fill-rule="evenodd">
        <g id="Bumpa-coming-soon2" transform="translate(-174.000000, -281.000000)" stroke="#6B58EA">
            <g id="Group-5" transform="translate(175.000000, 282.000000)">
                <path d="M32.902,18.239 C31.653,18.239 30.64,17.226 30.64,15.977 C30.64,14.727 31.653,13.715 32.902,13.715 C34.152,13.715 35.165,14.727 35.165,15.977 C35.165,17.226 34.152,18.239 32.902,18.239 Z M8.158,18.239 C6.909,18.239 5.896,17.226 5.896,15.977 C5.896,14.727 6.909,13.715 8.158,13.715 C9.407,13.715 10.421,14.727 10.421,15.977 C10.421,17.226 9.407,18.239 8.158,18.239 Z M39.081,8.342 L36.536,8.342 C35.895,8.342 35.326,8.648 34.965,9.121 C34.176,5.326 32.974,2.154 32.913,1.993 C32.653,1.312 31.942,0.734 31.222,0.617 C31.067,0.592 27.334,0 20.53,0 C13.726,0 9.994,0.592 9.839,0.617 C9.119,0.734 8.408,1.312 8.149,1.993 C8.088,2.154 6.885,5.326 6.097,9.121 C5.735,8.648 5.166,8.342 4.525,8.342 L1.979,8.342 C0.886,8.342 0,9.228 0,10.321 C0,11.414 0.886,12.301 1.979,12.301 L3.213,12.301 C2.505,13.147 2.078,14.236 2.078,15.426 L2.078,25.988 C2.078,26.524 2.517,26.963 3.054,26.963 L8.936,26.963 C9.473,26.963 9.912,26.524 9.912,25.988 L9.912,24.885 L31.149,24.885 L31.149,25.988 C31.149,26.524 31.588,26.963 32.125,26.963 L38.006,26.963 C38.543,26.963 38.982,26.524 38.982,25.988 L38.982,15.426 C38.982,14.236 38.555,13.147 37.848,12.301 L39.081,12.301 C40.175,12.301 41.061,11.414 41.061,10.321 C41.061,9.228 40.175,8.342 39.081,8.342 Z" id="Stroke-1"></path>
            </g>
        </g>
    </g>
</svg>