<?xml version="1.0" encoding="UTF-8"?>
<svg width="14px" height="15px" viewBox="0 0 14 15" version="1.1" xmlns="http://www.w3.org/2000/svg" xmlns:xlink="http://www.w3.org/1999/xlink">
    <!-- Generator: Sketch 51 (57462) - http://www.bohemiancoding.com/sketch -->
    <title>People - simple-line-icons</title>
    <desc>Created with Sketch.</desc>
    <defs></defs>
    <g id="Page-1" stroke="none" stroke-width="1" fill="none" fill-rule="evenodd">
        <g id="Bumpa-coming-soon2" transform="translate(-1306.000000, -852.000000)" fill="#FFFFFF">
            <g id="Group-7" transform="translate(1306.000000, 847.000000)">
                <path d="M10.1992188,17.2910156 L10.5683594,17.4960938 C10.8144544,17.6328132 10.9375,17.8105458 10.9375,18.0292969 L10.9375,19.1367188 C10.9375,19.3463552 10.8645841,19.5218092 10.71875,19.6630859 C10.5729159,19.8043627 10.3997406,19.875 10.1992188,19.875 L0.73828125,19.875 C0.537759414,19.875 0.364584062,19.8043627 0.21875,19.6630859 C0.0729159375,19.5218092 0,19.3463552 0,19.1367188 L0,18.0292969 C0,17.828775 0.123045645,17.6555997 0.369140625,17.5097656 L0.73828125,17.2910156 L3.56835938,15.7597656 C3.04882553,15.3496073 2.68880309,14.8027378 2.48828125,14.1191406 C2.28775941,13.4355435 2.1875,12.8932312 2.1875,12.4921875 L2.1875,10.6464844 C2.1875,10.336587 2.28320217,10.0289729 2.47460938,9.72363281 C2.66601658,9.41829274 2.91666512,9.14257936 3.2265625,8.89648438 C3.53645988,8.65038939 3.88964646,8.44987057 4.28613281,8.29492188 C4.68261917,8.13997318 5.0813782,8.0625 5.48242188,8.0625 C5.89258018,8.0625 6.29361783,8.13997318 6.68554688,8.29492188 C7.07747592,8.44987057 7.42610524,8.65038939 7.73144531,8.89648438 C8.03678538,9.14257936 8.28287667,9.41829274 8.46972656,9.72363281 C8.65657646,10.0289729 8.75,10.336587 8.75,10.6464844 L8.75,12.4921875 C8.75,12.9388043 8.6611337,13.4947883 8.48339844,14.1601562 C8.30566317,14.8255242 7.96159109,15.3632792 7.45117188,15.7734375 L10.1992188,17.2910156 Z M10.0625,19 L10.0625,18.2207031 C10.0351561,18.1933592 10.0032554,18.170573 9.96679688,18.1523438 L9.85742188,18.0976562 C9.84830725,18.0976562 9.83691413,18.093099 9.82324219,18.0839844 C9.80957024,18.0748697 9.79361988,18.0657553 9.77539062,18.0566406 L7.02734375,16.5390625 C6.89973895,16.4661455 6.79492229,16.3681647 6.71289062,16.2451172 C6.63085896,16.1220697 6.5852865,15.9876309 6.57617188,15.8417969 C6.55794262,15.6959628 6.57845022,15.5546882 6.63769531,15.4179688 C6.6969404,15.2812493 6.7858067,15.1673182 6.90429688,15.0761719 C7.27799666,14.7845038 7.53320244,14.3675157 7.66992188,13.8251953 C7.80664131,13.2828749 7.875,12.8385434 7.875,12.4921875 L7.875,10.6464844 C7.875,10.3274724 7.63574458,9.96289268 7.15722656,9.55273438 C6.67870854,9.14257607 6.1204459,8.9375 5.48242188,8.9375 C4.86262711,8.9375 4.30436446,9.14257607 3.80761719,9.55273438 C3.31086991,9.96289268 3.0625,10.3274724 3.0625,10.6464844 L3.0625,12.4921875 C3.0625,12.8385434 3.14453043,13.2828749 3.30859375,13.8251953 C3.47265707,14.3675157 3.74153459,14.7845038 4.11523438,15.0761719 C4.22460992,15.1673182 4.30891897,15.2812493 4.36816406,15.4179688 C4.42740915,15.5546882 4.44791676,15.6959628 4.4296875,15.8417969 C4.42057287,15.9876309 4.37500041,16.1220697 4.29296875,16.2451172 C4.21093709,16.3681647 4.10612043,16.4615882 3.97851562,16.5253906 L1.1484375,18.0703125 C1.13932287,18.0703125 1.13020838,18.0725911 1.12109375,18.0771484 C1.11197912,18.0817058 1.10286463,18.0885416 1.09375,18.0976562 C1.05729148,18.1067709 1.01855489,18.1249999 0.977539062,18.1523438 L0.875,18.2207031 L0.875,19 L10.0625,19 Z M13.2617188,15.1171875 C13.2617188,15.1171875 13.3847644,15.1855462 13.6308594,15.3222656 C13.8769544,15.4589851 14,15.6367177 14,15.8554688 L14,16.9492188 C14,17.1588552 13.9270841,17.3343092 13.78125,17.4755859 C13.6354159,17.6168627 13.4622406,17.6875 13.2617188,17.6875 L11.8125,17.6875 C11.7578122,17.4960928 11.7008467,17.3274747 11.6416016,17.1816406 C11.5823565,17.0358066 11.4889329,16.9127609 11.3613281,16.8125 L13.125,16.8125 L13.125,16.0332031 C13.0976561,16.0149739 13.0657554,15.9944663 13.0292969,15.9716797 C12.9928384,15.9488931 12.9563804,15.9329428 12.9199219,15.9238281 C12.9108072,15.9147135 12.8994141,15.9078776 12.8857422,15.9033203 C12.8720702,15.898763 12.8561199,15.8919271 12.8378906,15.8828125 L10.0488281,14.3652344 C9.92122332,14.2923173 9.81640666,14.1943366 9.734375,14.0712891 C9.65234334,13.9482416 9.60677088,13.8138028 9.59765625,13.6679688 C9.57942699,13.5221347 9.5999346,13.3808601 9.65917969,13.2441406 C9.71842478,13.1074212 9.80729107,12.99349 9.92578125,12.9023438 C10.299481,12.601561 10.5615227,12.1800157 10.7119141,11.6376953 C10.8623054,11.0953749 10.9375,10.6556006 10.9375,10.3183594 L10.9375,8.47265625 C10.9375,8.14452961 10.6914087,7.77539268 10.1992188,7.36523438 C9.70702879,6.95507607 9.14193027,6.75 8.50390625,6.75 C8.19400887,6.75 7.89550925,6.80012971 7.60839844,6.90039062 C7.32128763,7.00065154 7.06380322,7.13736893 6.8359375,7.31054688 C6.66275955,7.2558591 6.48046971,7.22395838 6.2890625,7.21484375 C6.09765529,7.20572912 5.9108082,7.19661463 5.72851562,7.1875 C6.04752764,6.81380021 6.45767979,6.49935023 6.95898438,6.24414062 C7.46028896,5.98893102 7.97525777,5.86132812 8.50390625,5.86132812 C8.91406455,5.86132812 9.31738083,5.94107993 9.71386719,6.10058594 C10.1103535,6.26009194 10.4635401,6.46288939 10.7734375,6.70898438 C11.0833349,6.95507936 11.3339834,7.23307137 11.5253906,7.54296875 C11.7167978,7.85286613 11.8125,8.16275887 11.8125,8.47265625 L11.8125,10.3183594 C11.8125,10.7558616 11.7167978,11.309567 11.5253906,11.9794922 C11.3339834,12.6494174 10.9830755,13.1848938 10.4726562,13.5859375 L13.2617188,15.1171875 Z" id="People---simple-line-icons"></path>
            </g>
        </g>
    </g>
</svg>