<?xml version="1.0" encoding="UTF-8"?>
<svg width="14px" height="14px" viewBox="0 0 14 14" version="1.1" xmlns="http://www.w3.org/2000/svg" xmlns:xlink="http://www.w3.org/1999/xlink">
    <!-- Generator: Sketch 51 (57462) - http://www.bohemiancoding.com/sketch -->
    <title>bubbles - simple-line-icons</title>
    <desc>Created with Sketch.</desc>
    <defs></defs>
    <g id="Page-1" stroke="none" stroke-width="1" fill="none" fill-rule="evenodd">
        <g id="Bumpa-coming-soon2" transform="translate(-573.000000, -857.000000)" fill="#FFFFFF">
            <g id="Group-6" transform="translate(75.000000, 75.000000)">
                <path d="M503.810547,791.158203 L503.509766,791.158203 C503.409505,791.158203 503.311524,791.155925 503.21582,791.151367 C503.120117,791.14681 503.008464,791.135417 502.880859,791.117188 C502.817057,791.190105 502.678061,791.31315 502.463867,791.486328 C502.249673,791.659506 501.996746,791.841796 501.705078,792.033203 C501.41341,792.22461 501.105796,792.397786 500.782227,792.552734 C500.458657,792.707683 500.1556,792.807942 499.873047,792.853516 L499.859375,792.853516 L499.832031,792.860352 C499.813802,792.864909 499.795573,792.867188 499.777344,792.867188 C499.686197,792.867188 499.611003,792.835287 499.551758,792.771484 C499.492513,792.707682 499.462891,792.630209 499.462891,792.539062 C499.462891,792.511719 499.465169,792.488932 499.469727,792.470703 C499.474284,792.452474 499.48112,792.434245 499.490234,792.416016 L499.476562,792.416016 C499.585938,792.233723 499.738606,791.953452 499.93457,791.575195 C500.130535,791.196938 500.228516,790.848309 500.228516,790.529297 L500.228516,790.501953 C499.854816,790.310546 499.526694,790.073569 499.244141,789.791016 C498.961587,789.508462 498.729168,789.198569 498.546875,788.861328 C498.364582,788.524087 498.227865,788.168622 498.136719,787.794922 C498.045572,787.421222 498,787.052085 498,786.6875 C498,786.095049 498.14811,785.539065 498.444336,785.019531 C498.740561,784.499997 499.148435,784.04883 499.667969,783.666016 C500.187503,783.283201 500.793616,782.980144 501.486328,782.756836 C502.17904,782.533528 502.921871,782.421875 503.714844,782.421875 C504.498702,782.421875 505.234697,782.533528 505.922852,782.756836 C506.611006,782.980144 507.210284,783.283201 507.720703,783.666016 C508.231122,784.04883 508.634439,784.499997 508.930664,785.019531 C509.22689,785.539065 509.375,786.095049 509.375,786.6875 C509.384115,787.352868 509.247397,787.96126 508.964844,788.512695 C508.68229,789.06413 508.290367,789.535805 507.789062,789.927734 C507.287758,790.319663 506.695316,790.62272 506.011719,790.836914 C505.328122,791.051108 504.594405,791.158203 503.810547,791.158203 Z M502.525391,790.214844 L503.003906,790.255859 C503.213543,790.283203 503.404947,790.296875 503.578125,790.296875 L503.837891,790.296875 C504.503259,790.296875 505.120765,790.208009 505.69043,790.030273 C506.260094,789.852538 506.752277,789.60189 507.166992,789.27832 C507.581708,788.954751 507.907551,788.571942 508.144531,788.129883 C508.381512,787.687823 508.5,787.207034 508.5,786.6875 C508.5,786.213539 508.374676,785.771486 508.124023,785.361328 C507.873371,784.95117 507.533856,784.593426 507.105469,784.288086 C506.677081,783.982746 506.171227,783.741212 505.587891,783.563477 C505.004554,783.385741 504.380212,783.296875 503.714844,783.296875 C503.049476,783.296875 502.422855,783.385741 501.834961,783.563477 C501.247067,783.741212 500.732099,783.982746 500.290039,784.288086 C499.84798,784.593426 499.501629,784.95117 499.250977,785.361328 C499.000324,785.771486 498.875,786.213539 498.875,786.6875 C498.875,787.252607 499.016275,787.822263 499.298828,788.396484 C499.581382,788.970706 500.023434,789.412759 500.625,789.722656 L501.103516,789.96875 L501.0625,790.501953 L501.035156,790.741211 C501.016927,790.900717 500.930339,791.190102 500.775391,791.609375 C501.021486,791.463541 501.265298,791.292644 501.506836,791.09668 C501.748374,790.900715 501.901041,790.761719 501.964844,790.679688 L502.525391,790.214844 Z M512,790.214844 C512,790.852868 511.845054,791.415688 511.535156,791.90332 C511.225259,792.390953 510.746748,792.798826 510.099609,793.126953 C510.099609,793.136068 510.099609,793.142904 510.099609,793.147461 C510.099609,793.152018 510.099609,793.154297 510.099609,793.154297 C510.099609,793.43685 510.154296,793.764972 510.263672,794.138672 C510.373047,794.512372 510.473307,794.776692 510.564453,794.931641 C510.573568,794.94987 510.580404,794.968099 510.584961,794.986328 C510.589518,795.004557 510.591797,795.022786 510.591797,795.041016 C510.591797,795.123047 510.564453,795.191406 510.509766,795.246094 C510.455078,795.300782 510.386719,795.328125 510.304688,795.328125 C510.295573,795.328125 510.281901,795.328125 510.263672,795.328125 C510.245443,795.328125 510.236328,795.328125 510.236328,795.328125 C510.227213,795.328125 510.222656,795.328125 510.222656,795.328125 C509.739581,795.246093 509.251956,795.000002 508.759766,794.589844 C508.267576,794.179685 507.971355,793.910808 507.871094,793.783203 C507.761718,793.792318 507.666016,793.799154 507.583984,793.803711 C507.501953,793.808268 507.415365,793.810547 507.324219,793.810547 C507.278646,793.810547 507.235352,793.810547 507.194336,793.810547 C507.15332,793.810547 507.110026,793.810547 507.064453,793.810547 C506.617836,793.810547 506.196291,793.77181 505.799805,793.694336 C505.403318,793.616862 505.031903,793.50293 504.685547,793.352539 C504.339191,793.202148 504.024741,793.019858 503.742188,792.805664 C503.459634,792.59147 503.208985,792.352215 502.990234,792.087891 C503.008464,792.069661 503.247719,792.060547 503.708008,792.060547 C504.168297,792.060547 504.348308,792.065104 504.248047,792.074219 C504.621747,792.365887 505.036456,792.582356 505.492188,792.723633 C505.947919,792.86491 506.472002,792.935547 507.064453,792.935547 C507.064453,792.935547 507.153319,792.935547 507.331055,792.935547 C507.50879,792.935547 507.643229,792.926432 507.734375,792.908203 L508.199219,792.839844 C508.199219,792.839844 508.283528,792.953775 508.452148,793.181641 C508.620769,793.409506 508.919269,793.678384 509.347656,793.988281 C509.311198,793.851562 509.283854,793.582684 509.265625,793.181641 C509.247396,792.780597 509.238281,792.580078 509.238281,792.580078 L509.662109,792.375 C510.181643,792.110676 510.555337,791.803062 510.783203,791.452148 C511.011069,791.101235 511.125,790.688804 511.125,790.214844 C511.125,789.832029 511.05892,789.49935 510.926758,789.216797 C510.794596,788.934243 510.541669,788.660809 510.167969,788.396484 C510.213542,788.25065 510.256836,788.095704 510.297852,787.931641 C510.338867,787.767577 510.368489,787.608074 510.386719,787.453125 C510.96094,787.790366 511.373371,788.186847 511.624023,788.642578 C511.874676,789.09831 512,789.622393 512,790.214844 Z" id="bubbles---simple-line-icons"></path>
            </g>
        </g>
    </g>
</svg>