<?xml version="1.0" encoding="UTF-8"?>
<svg width="11px" height="14px" viewBox="0 0 11 14" version="1.1" xmlns="http://www.w3.org/2000/svg" xmlns:xlink="http://www.w3.org/1999/xlink">
    <!-- Generator: Sketch 51 (57462) - http://www.bohemiancoding.com/sketch -->
    <title>lock - simple-line-icons</title>
    <desc>Created with Sketch.</desc>
    <defs></defs>
    <g id="Page-1" stroke="none" stroke-width="1" fill="none" fill-rule="evenodd">
        <g id="Bumpa-coming-soon2" transform="translate(-198.000000, -856.000000)" fill="#FFFFFF">
            <g id="Group-5" transform="translate(198.000000, 850.000000)">
                <path d="M9.30769231,11.25 C9.77484208,11.25 10.1736762,11.4208967 10.5042067,11.7626953 C10.8347372,12.1044939 11,12.5169247 11,13 L11,18.25 C11,18.7330753 10.8347372,19.1455061 10.5042067,19.4873047 C10.1736762,19.8291033 9.77484208,20 9.30769231,20 L1.69230769,20 C1.22515792,20 0.826323768,19.8291033 0.495793269,19.4873047 C0.16526277,19.1455061 0,18.7330753 0,18.25 L0,13 C0,12.5169247 0.16526277,12.1044939 0.495793269,11.7626953 C0.826323768,11.4208967 1.22515792,11.25 1.69230769,11.25 L2.11538462,11.25 L2.11538462,9.58203125 C2.11538462,9.08984129 2.19691425,8.62500219 2.35997596,8.1875 C2.52303767,7.74999781 2.75220205,7.36946776 3.04747596,7.04589844 C3.34274987,6.72232911 3.69751395,6.46712333 4.11177885,6.28027344 C4.52604374,6.09342354 4.98437249,6 5.48677885,6 C5.98037106,6 6.4364963,6.09342354 6.85516827,6.28027344 C7.27384023,6.46712333 7.63301132,6.72005049 7.93269231,7.0390625 C8.23237329,7.35807451 8.46594468,7.73632594 8.63341346,8.17382812 C8.80088225,8.61133031 8.88461538,9.08072666 8.88461538,9.58203125 L8.88461538,11.25 L9.30769231,11.25 Z M2.96153846,9.58203125 L2.96153846,11.25 L8.03846154,11.25 L8.03846154,9.58203125 C8.03846154,8.82551705 7.80268665,8.18522397 7.33112981,7.66113281 C6.85957296,7.13704165 6.24479546,6.875 5.48677885,6.875 C4.71994809,6.875 4.10737409,7.13932027 3.64903846,7.66796875 C3.19070284,8.19661723 2.96153846,8.83463168 2.96153846,9.58203125 Z M10.1538462,18.25 L10.1538462,13 C10.1538462,12.7630196 10.070113,12.5579436 9.90264423,12.3847656 C9.73517544,12.2115877 9.53686012,12.125 9.30769231,12.125 L1.69230769,12.125 C1.46313988,12.125 1.26482456,12.2115877 1.09735577,12.3847656 C0.929886983,12.5579436 0.846153846,12.7630196 0.846153846,13 L0.846153846,18.25 C0.846153846,18.4869804 0.929886983,18.6920564 1.09735577,18.8652344 C1.26482456,19.0384123 1.46313988,19.125 1.69230769,19.125 L9.30769231,19.125 C9.53686012,19.125 9.73517544,19.0384123 9.90264423,18.8652344 C10.070113,18.6920564 10.1538462,18.4869804 10.1538462,18.25 Z M5.5,13.875 C5.73798196,13.875 5.93850079,13.9593091 6.1015625,14.1279297 C6.26462421,14.2965503 6.34615385,14.503905 6.34615385,14.75 C6.34615385,14.9140633 6.30649078,15.0621738 6.22716346,15.1943359 C6.14783614,15.3264981 6.04647498,15.4290361 5.92307692,15.5019531 L5.92307692,16.9375 C5.92307692,17.0559902 5.88121035,17.1585282 5.79747596,17.2451172 C5.71374157,17.3317062 5.61458391,17.375 5.5,17.375 C5.38541609,17.375 5.28625843,17.3317062 5.20252404,17.2451172 C5.11878965,17.1585282 5.07692308,17.0559902 5.07692308,16.9375 L5.07692308,15.5019531 C4.95352502,15.4290361 4.85216386,15.3264981 4.77283654,15.1943359 C4.69350922,15.0621738 4.65384615,14.9140633 4.65384615,14.75 C4.65384615,14.503905 4.73537579,14.2965503 4.8984375,14.1279297 C5.06149921,13.9593091 5.26201804,13.875 5.5,13.875 Z" id="lock---simple-line-icons"></path>
            </g>
        </g>
    </g>
</svg>