<?xml version="1.0" encoding="UTF-8"?>
<svg width="14px" height="15px" viewBox="0 0 14 15" version="1.1" xmlns="http://www.w3.org/2000/svg" xmlns:xlink="http://www.w3.org/1999/xlink">
    <!-- Generator: Sketch 51 (57462) - http://www.bohemiancoding.com/sketch -->
    <title>pencil - simple-line-icons</title>
    <desc>Created with Sketch.</desc>
    <defs></defs>
    <g id="Page-1" stroke="none" stroke-width="1" fill="none" fill-rule="evenodd">
        <g id="Bumpa-coming-soon2" transform="translate(-934.000000, -856.000000)" fill="#FFFFFF">
            <g id="Group-4" transform="translate(933.000000, 850.000000)">
                <path d="M14.1796875,7.55859375 C14.4531264,7.81380336 14.6582024,8.08040226 14.7949219,8.35839844 C14.9316413,8.63639462 15.0045572,8.91666525 15.0136719,9.19921875 C15.0227865,9.5000015 14.9589851,9.79394388 14.8222656,10.0810547 C14.6855462,10.3681655 14.4850274,10.6484361 14.2207031,10.921875 C14.0930983,11.0585944 13.5826868,11.569006 12.6894531,12.453125 C11.7962195,13.337244 10.8323619,14.2919871 9.79785156,15.3173828 C8.76334118,16.3427786 7.81315537,17.2838499 6.94726562,18.140625 C6.08137588,18.9974001 5.60742229,19.4667965 5.52539062,19.5488281 C5.49804674,19.576172 5.46842464,19.5989582 5.43652344,19.6171875 C5.40462224,19.6354168 5.37044289,19.6490885 5.33398437,19.6582031 C5.20637957,19.6946616 4.93750205,19.7789707 4.52734375,19.9111328 C4.11718545,20.0432949 3.69564019,20.1777337 3.26269531,20.3144531 C2.82975044,20.4511726 2.4401059,20.5764968 2.09375,20.6904297 C1.7473941,20.8043625 1.5696615,20.8613281 1.56054687,20.8613281 C1.54231762,20.8704428 1.52181001,20.8772786 1.49902344,20.8818359 C1.47623687,20.8863933 1.45117201,20.8886719 1.42382812,20.8886719 C1.36914035,20.8886719 1.3144534,20.8772788 1.25976562,20.8544922 C1.20507785,20.8317056 1.15950539,20.7975263 1.12304687,20.7519531 C1.05924447,20.6972654 1.01822926,20.6289067 1,20.546875 C0.981770742,20.4648433 0.981770742,20.3828129 1,20.3007812 C1.00911463,20.2916666 1.06380158,20.1207699 1.1640625,19.7880859 C1.26432342,19.455402 1.38053319,19.0703147 1.51269531,18.6328125 C1.64485743,18.1953103 1.77246032,17.7692078 1.89550781,17.3544922 C2.0185553,16.9397766 2.10286436,16.641277 2.1484375,16.4589844 C2.16666676,16.4225259 2.18489574,16.3883465 2.203125,16.3564453 C2.22135426,16.3245441 2.24414049,16.294922 2.27148437,16.2675781 L6.50976562,12.0292969 C7.57617721,10.9628853 8.56282099,9.97396289 9.46972656,9.0625 C10.3766321,8.15103711 10.8619788,7.66796902 10.9257812,7.61328125 C11.0169275,7.52213496 11.2128891,7.37402446 11.5136719,7.16894531 C11.8144546,6.96386616 12.1835916,6.86132812 12.6210937,6.86132812 C12.9036472,6.86132812 13.1748034,6.92057232 13.4345703,7.0390625 C13.6943372,7.15755268 13.9427071,7.33072803 14.1796875,7.55859375 Z M10.7890625,9.0078125 C10.3606749,9.42708543 9.81380541,9.96939771 9.1484375,10.6347656 C8.48306959,11.3001335 7.79720405,11.9882777 7.09082031,12.6992188 C6.38443657,13.4101598 5.70768553,14.0891895 5.06054687,14.7363281 L3.515625,16.28125 C3.69791758,16.354167 3.90071503,16.4589837 4.12402344,16.5957031 C4.34733185,16.7324226 4.57291553,16.9147124 4.80078125,17.1425781 C4.98307383,17.3339853 5.13574157,17.5276683 5.25878906,17.7236328 C5.38183655,17.9195973 5.47981734,18.0996086 5.55273437,18.2636719 C5.93554879,17.8808575 6.44823897,17.3727245 7.09082031,16.7392578 C7.73340165,16.1057911 8.40559545,15.4404332 9.10742187,14.7431641 C9.8092483,14.045895 10.4905566,13.3691439 11.1513672,12.7128906 C11.8121778,12.0566373 12.3567687,11.5188823 12.7851562,11.0996094 C12.7760416,11.0266923 12.7236333,10.8557956 12.6279297,10.5869141 C12.5322261,10.3180325 12.3476576,10.0468764 12.0742187,9.7734375 C11.8007799,9.50911326 11.5455741,9.32226617 11.3085937,9.21289062 C11.0716134,9.10351508 10.898438,9.03515639 10.7890625,9.0078125 Z M2.9140625,17.0195312 C2.81380158,17.3567725 2.67480558,17.8033826 2.49707031,18.359375 C2.31933505,18.9153674 2.1666673,19.3984354 2.0390625,19.8085938 C2.46745006,19.6718743 2.96418988,19.5078135 3.52929687,19.3164062 C4.09440387,19.124999 4.52734225,18.9791672 4.828125,18.8789062 C4.78255186,18.7421868 4.70963592,18.5735687 4.609375,18.3730469 C4.50911408,18.172525 4.36328221,17.9765635 4.171875,17.7851562 C3.91666539,17.5299466 3.67513135,17.3453782 3.44726562,17.2314453 C3.2193999,17.1175125 3.0416673,17.0468751 2.9140625,17.0195312 Z M13.578125,10.2929688 C13.7604176,10.1106762 13.897135,9.92838633 13.9882812,9.74609375 C14.0794275,9.56380117 14.125,9.39062582 14.125,9.2265625 C14.125,9.06249918 14.0771489,8.89388107 13.9814453,8.72070312 C13.8857417,8.54752518 13.7467457,8.37434982 13.5644531,8.20117188 C13.4186191,8.05533781 13.2659513,7.94596391 13.1064453,7.87304688 C12.9469393,7.80012984 12.7851571,7.76367188 12.6210937,7.76367188 C12.3385403,7.76367188 12.0947276,7.83658781 11.8896484,7.98242188 C11.6845693,8.12825594 11.5729168,8.21484361 11.5546875,8.2421875 L11.4863281,8.31054688 C11.6595061,8.38346391 11.8509104,8.48600194 12.0605469,8.61816406 C12.2701833,8.75032618 12.4843739,8.92578016 12.703125,9.14453125 C12.9127615,9.35416771 13.0813796,9.56835828 13.2089844,9.78710938 C13.3365892,10.0058605 13.4322913,10.2063793 13.4960937,10.3886719 C13.514323,10.3704426 13.5302734,10.3522136 13.5439453,10.3339844 C13.5576173,10.3157551 13.5690104,10.3020834 13.578125,10.2929688 Z" id="pencil---simple-line-icons"></path>
            </g>
        </g>
    </g>
</svg>