<?xml version="1.0" encoding="UTF-8"?>
<svg width="40px" height="36px" viewBox="0 0 40 36" version="1.1" xmlns="http://www.w3.org/2000/svg" xmlns:xlink="http://www.w3.org/1999/xlink">
    <!-- Generator: Sketch 51 (57462) - http://www.bohemiancoding.com/sketch -->
    <title>logo/bumpa-small</title>
    <desc>Created with Sketch.</desc>
    <defs></defs>
    <g id="Page-1" stroke="none" stroke-width="1" fill="none" fill-rule="evenodd">
        <g id="Bumpa-coming-soon2" transform="translate(-20.000000, -20.000000)" fill="#FFFFFF">
            <g id="logo/bumpa-small" transform="translate(20.000000, 20.000000)">
                <path d="M28.2891386,14.2997153 C32.040594,14.2997153 39.4371111,14.3013897 39.4371111,14.3013897 C39.4371111,14.3013897 39.4388411,15.6526455 39.4388411,22.9062269 C39.4379761,25.2319943 39.1179303,27.4891106 37.8541821,29.5277153 C36.1484246,32.2804595 33.5171294,33.786599 30.3927908,34.5183199 C28.2346443,35.0248316 26.0730379,35.314506 23.9218114,35.3471571 C23.7583285,35.3496688 15.629166,35.350506 15.4656832,35.3496688 C15.3177702,35.3496688 15.1707221,35.3479943 15.0236741,35.3446455 C12.5247221,35.294413 10.03961,34.8892037 7.58390746,34.0620409 C3.02801273,32.5291106 0.496191218,29.3636223 0.0879166181,24.6752502 C0.0256374419,23.9636223 0.00487771655,23.2478083 0.00401272799,22.534506 C-0.00204219192,15.4592502 0.000552773753,14.2997153 0.000552773753,14.2997153 L11.2004246,14.2963664 C11.2004246,14.2963664 11.1995596,13.2172037 11.2038846,19.9349711 C11.2038846,20.3812037 11.2133995,20.830785 11.2739487,21.2703199 C11.5611249,23.3432502 12.8560127,24.4868781 15.024539,24.5513432 C15.1949418,24.5563664 15.3670745,24.5597153 15.5392072,24.5605525 C15.6611706,24.5605525 23.7496786,24.5588781 23.873372,24.5563664 C24.3145162,24.5446455 24.7565253,24.5086455 25.1855596,24.4324595 C27.1049692,24.0850176 28.1403606,22.9045525 28.2631889,21.0191571 C28.2951935,20.5302269 28.2882736,20.0379478 28.2882736,19.5473432 C28.2900036,12.9618548 28.2891386,14.6212037 28.2891386,14.2997153" id="u"></path>
                <path d="M39.6943249,5.39497674 C39.6943249,2.41451163 37.197968,0 34.1194737,0 C31.0401144,0 28.5446224,2.41451163 28.5446224,5.39497674 C28.5446224,8.37544186 31.0401144,10.7907907 34.1194737,10.7907907 C37.197968,10.7907907 39.6943249,8.37544186 39.6943249,5.39497674" id="seller"></path>
                <path d="M11.1505675,5.39497674 C11.1505675,2.41451163 8.65421053,0 5.57571625,0 C2.49635698,0 0,2.41451163 0,5.39497674 C0,8.37544186 2.49635698,10.7907907 5.57571625,10.7907907 C8.65421053,10.7907907 11.1505675,8.37544186 11.1505675,5.39497674" id="buyer"></path>
            </g>
        </g>
    </g>
</svg>